<mxfile host="app.diagrams.net" modified="2021-05-20T04:00:16.466Z" agent="5.0 (Windows NT 10.0; WOW64) AppleWebKit/537.36 (KHTML, like Gecko) Chrome/86.0.4240.198 Safari/537.36" etag="CvfK84WMNqCXtZRUwyy1" version="14.6.13" type="github">
  <diagram id="KDrnXD7OavnhQnqS2AQc" name="Page-1">
    <mxGraphModel dx="1422" dy="734" grid="1" gridSize="10" guides="1" tooltips="1" connect="1" arrows="1" fold="1" page="1" pageScale="1" pageWidth="827" pageHeight="1169" math="0" shadow="0">
      <root>
        <mxCell id="0" />
        <mxCell id="1" parent="0" />
        <mxCell id="46GAP5GGZjohNHjInnX8-1" value="" style="endArrow=classic;html=1;" parent="1" edge="1">
          <mxGeometry width="50" height="50" relative="1" as="geometry">
            <mxPoint x="50" y="119" as="sourcePoint" />
            <mxPoint x="430" y="119" as="targetPoint" />
          </mxGeometry>
        </mxCell>
        <mxCell id="46GAP5GGZjohNHjInnX8-2" value="" style="endArrow=classic;html=1;" parent="1" edge="1">
          <mxGeometry width="50" height="50" relative="1" as="geometry">
            <mxPoint x="121" y="90" as="sourcePoint" />
            <mxPoint x="121" y="260" as="targetPoint" />
          </mxGeometry>
        </mxCell>
        <mxCell id="46GAP5GGZjohNHjInnX8-3" value="O" style="text;html=1;strokeColor=none;fillColor=none;align=center;verticalAlign=middle;whiteSpace=wrap;rounded=0;" parent="1" vertex="1">
          <mxGeometry x="95" y="99" width="40" height="20" as="geometry" />
        </mxCell>
        <mxCell id="46GAP5GGZjohNHjInnX8-4" value="x" style="text;html=1;strokeColor=none;fillColor=none;align=center;verticalAlign=middle;whiteSpace=wrap;rounded=0;" parent="1" vertex="1">
          <mxGeometry x="420" y="90" width="40" height="20" as="geometry" />
        </mxCell>
        <mxCell id="46GAP5GGZjohNHjInnX8-6" value="y" style="text;html=1;strokeColor=none;fillColor=none;align=center;verticalAlign=middle;whiteSpace=wrap;rounded=0;" parent="1" vertex="1">
          <mxGeometry x="70" y="270" width="40" height="20" as="geometry" />
        </mxCell>
        <mxCell id="46GAP5GGZjohNHjInnX8-8" value="" style="ellipse;whiteSpace=wrap;html=1;aspect=fixed;strokeColor=#FF0000;fillColor=#FF0000;" parent="1" vertex="1">
          <mxGeometry x="316" y="195" width="10" height="10" as="geometry" />
        </mxCell>
        <mxCell id="46GAP5GGZjohNHjInnX8-9" value="x_index = 5&lt;br&gt;y_index = 2&lt;br&gt;x = 1.0&lt;br&gt;y = 0.4" style="text;html=1;strokeColor=none;fillColor=none;align=center;verticalAlign=middle;whiteSpace=wrap;rounded=0;" parent="1" vertex="1">
          <mxGeometry x="290" y="210" width="160" height="20" as="geometry" />
        </mxCell>
        <mxCell id="46GAP5GGZjohNHjInnX8-11" value="注：每个格子的间距为0.2m" style="text;html=1;strokeColor=none;fillColor=none;align=center;verticalAlign=middle;whiteSpace=wrap;rounded=0;" parent="1" vertex="1">
          <mxGeometry x="140" y="280" width="190" height="20" as="geometry" />
        </mxCell>
        <mxCell id="46GAP5GGZjohNHjInnX8-13" value="" style="curved=1;endArrow=classic;html=1;strokeColor=#3333FF;" parent="1" edge="1">
          <mxGeometry width="50" height="50" relative="1" as="geometry">
            <mxPoint x="160" y="780" as="sourcePoint" />
            <mxPoint x="650" y="420" as="targetPoint" />
            <Array as="points">
              <mxPoint x="220" y="860" />
              <mxPoint x="240" y="470" />
            </Array>
          </mxGeometry>
        </mxCell>
        <mxCell id="46GAP5GGZjohNHjInnX8-14" value="" style="curved=1;endArrow=classic;html=1;strokeColor=#FF0000;" parent="1" edge="1">
          <mxGeometry width="50" height="50" relative="1" as="geometry">
            <mxPoint x="170" y="820" as="sourcePoint" />
            <mxPoint x="670" y="450" as="targetPoint" />
            <Array as="points">
              <mxPoint x="240" y="890" />
              <mxPoint x="260" y="500" />
            </Array>
          </mxGeometry>
        </mxCell>
        <mxCell id="46GAP5GGZjohNHjInnX8-15" value="" style="curved=1;endArrow=classic;html=1;strokeColor=#3333FF;" parent="1" edge="1">
          <mxGeometry width="50" height="50" relative="1" as="geometry">
            <mxPoint x="170" y="850" as="sourcePoint" />
            <mxPoint x="685" y="490" as="targetPoint" />
            <Array as="points">
              <mxPoint x="255" y="930" />
              <mxPoint x="275" y="540" />
            </Array>
          </mxGeometry>
        </mxCell>
        <mxCell id="46GAP5GGZjohNHjInnX8-16" value="" style="ellipse;whiteSpace=wrap;html=1;strokeColor=#FF0000;fillColor=#FF0000;" parent="1" vertex="1">
          <mxGeometry x="195" y="834" width="10" height="10" as="geometry" />
        </mxCell>
        <mxCell id="46GAP5GGZjohNHjInnX8-18" value="" style="ellipse;whiteSpace=wrap;html=1;strokeColor=#FF0000;fillColor=#FF0000;" parent="1" vertex="1">
          <mxGeometry x="276" y="599" width="10" height="10" as="geometry" />
        </mxCell>
        <mxCell id="46GAP5GGZjohNHjInnX8-19" value="" style="ellipse;whiteSpace=wrap;html=1;strokeColor=#FF0000;fillColor=#FF0000;" parent="1" vertex="1">
          <mxGeometry x="257" y="636" width="10" height="10" as="geometry" />
        </mxCell>
        <mxCell id="46GAP5GGZjohNHjInnX8-20" value="" style="ellipse;whiteSpace=wrap;html=1;strokeColor=#FF0000;fillColor=#FF0000;" parent="1" vertex="1">
          <mxGeometry x="247" y="675" width="10" height="10" as="geometry" />
        </mxCell>
        <mxCell id="46GAP5GGZjohNHjInnX8-21" value="" style="ellipse;whiteSpace=wrap;html=1;strokeColor=#FF0000;fillColor=#FF0000;" parent="1" vertex="1">
          <mxGeometry x="244" y="714" width="10" height="10" as="geometry" />
        </mxCell>
        <mxCell id="46GAP5GGZjohNHjInnX8-22" value="" style="ellipse;whiteSpace=wrap;html=1;strokeColor=#FF0000;fillColor=#FF0000;" parent="1" vertex="1">
          <mxGeometry x="241" y="755" width="10" height="10" as="geometry" />
        </mxCell>
        <mxCell id="46GAP5GGZjohNHjInnX8-23" value="" style="ellipse;whiteSpace=wrap;html=1;strokeColor=#FF0000;fillColor=#FF0000;" parent="1" vertex="1">
          <mxGeometry x="229" y="796" width="10" height="10" as="geometry" />
        </mxCell>
        <mxCell id="46GAP5GGZjohNHjInnX8-26" value="" style="endArrow=classic;html=1;strokeColor=#3333FF;" parent="1" edge="1">
          <mxGeometry width="50" height="50" relative="1" as="geometry">
            <mxPoint x="110" y="400" as="sourcePoint" />
            <mxPoint x="780" y="400" as="targetPoint" />
          </mxGeometry>
        </mxCell>
        <mxCell id="46GAP5GGZjohNHjInnX8-27" value="" style="endArrow=classic;html=1;strokeColor=#3333FF;" parent="1" edge="1">
          <mxGeometry width="50" height="50" relative="1" as="geometry">
            <mxPoint x="120" y="385" as="sourcePoint" />
            <mxPoint x="120" y="910" as="targetPoint" />
          </mxGeometry>
        </mxCell>
        <mxCell id="46GAP5GGZjohNHjInnX8-28" value="x" style="text;html=1;strokeColor=none;fillColor=none;align=center;verticalAlign=middle;whiteSpace=wrap;rounded=0;" parent="1" vertex="1">
          <mxGeometry x="740" y="410" width="40" height="20" as="geometry" />
        </mxCell>
        <mxCell id="46GAP5GGZjohNHjInnX8-29" value="y" style="text;html=1;strokeColor=none;fillColor=none;align=center;verticalAlign=middle;whiteSpace=wrap;rounded=0;" parent="1" vertex="1">
          <mxGeometry x="116" y="900" width="40" height="20" as="geometry" />
        </mxCell>
        <mxCell id="46GAP5GGZjohNHjInnX8-30" value="o" style="text;html=1;strokeColor=none;fillColor=none;align=center;verticalAlign=middle;whiteSpace=wrap;rounded=0;" parent="1" vertex="1">
          <mxGeometry x="92" y="380" width="40" height="20" as="geometry" />
        </mxCell>
        <mxCell id="46GAP5GGZjohNHjInnX8-31" value="注：每个格子的间距为0.2m&lt;br&gt;每个坐标点含义为（x_index, y_index, x, y, z,vx,vy）" style="text;html=1;strokeColor=none;fillColor=none;align=center;verticalAlign=middle;whiteSpace=wrap;rounded=0;" parent="1" vertex="1">
          <mxGeometry x="414" y="890" width="306" height="20" as="geometry" />
        </mxCell>
        <mxCell id="46GAP5GGZjohNHjInnX8-32" value="（2,11,0.4,2.2,z,0.625,0.78）" style="text;html=1;strokeColor=none;fillColor=none;align=center;verticalAlign=middle;whiteSpace=wrap;rounded=0;" parent="1" vertex="1">
          <mxGeometry x="188" y="878" width="40" height="20" as="geometry" />
        </mxCell>
        <mxCell id="46GAP5GGZjohNHjInnX8-33" value="(3,10,0.56,2,z, vx, vy)" style="text;html=1;strokeColor=none;fillColor=none;align=center;verticalAlign=middle;whiteSpace=wrap;rounded=0;" parent="1" vertex="1">
          <mxGeometry x="277" y="806" width="133" height="20" as="geometry" />
        </mxCell>
        <mxCell id="46GAP5GGZjohNHjInnX8-34" value="A" style="text;html=1;strokeColor=none;fillColor=none;align=center;verticalAlign=middle;whiteSpace=wrap;rounded=0;" parent="1" vertex="1">
          <mxGeometry x="165" y="830" width="40" height="20" as="geometry" />
        </mxCell>
        <mxCell id="46GAP5GGZjohNHjInnX8-35" value="B" style="text;html=1;strokeColor=none;fillColor=none;align=center;verticalAlign=middle;whiteSpace=wrap;rounded=0;" parent="1" vertex="1">
          <mxGeometry x="204" y="796" width="40" height="20" as="geometry" />
        </mxCell>
        <mxCell id="SaD7OCH_LvbBWKPeLSNq-78" value="" style="curved=1;endArrow=classic;html=1;strokeColor=#FF3333;" edge="1" parent="1">
          <mxGeometry width="50" height="50" relative="1" as="geometry">
            <mxPoint x="110" y="1440" as="sourcePoint" />
            <mxPoint x="520" y="1060" as="targetPoint" />
            <Array as="points">
              <mxPoint x="330" y="1330" />
              <mxPoint x="240" y="1190" />
            </Array>
          </mxGeometry>
        </mxCell>
        <mxCell id="SaD7OCH_LvbBWKPeLSNq-79" value="" style="endArrow=classic;startArrow=classic;html=1;strokeColor=#0000FF;" edge="1" parent="1">
          <mxGeometry width="50" height="50" relative="1" as="geometry">
            <mxPoint x="190" y="1430" as="sourcePoint" />
            <mxPoint x="160" y="1380" as="targetPoint" />
          </mxGeometry>
        </mxCell>
        <mxCell id="SaD7OCH_LvbBWKPeLSNq-80" value="" style="endArrow=classic;startArrow=classic;html=1;strokeColor=#0000FF;" edge="1" parent="1">
          <mxGeometry width="50" height="50" relative="1" as="geometry">
            <mxPoint x="220" y="1410" as="sourcePoint" />
            <mxPoint x="190" y="1360" as="targetPoint" />
          </mxGeometry>
        </mxCell>
        <mxCell id="SaD7OCH_LvbBWKPeLSNq-81" value="" style="endArrow=classic;startArrow=classic;html=1;strokeColor=#0000FF;" edge="1" parent="1">
          <mxGeometry width="50" height="50" relative="1" as="geometry">
            <mxPoint x="160" y="1450" as="sourcePoint" />
            <mxPoint x="130" y="1400" as="targetPoint" />
          </mxGeometry>
        </mxCell>
        <mxCell id="SaD7OCH_LvbBWKPeLSNq-82" value="" style="endArrow=classic;startArrow=classic;html=1;strokeColor=#0000FF;" edge="1" parent="1">
          <mxGeometry width="50" height="50" relative="1" as="geometry">
            <mxPoint x="240" y="1400" as="sourcePoint" />
            <mxPoint x="210" y="1350" as="targetPoint" />
          </mxGeometry>
        </mxCell>
        <mxCell id="SaD7OCH_LvbBWKPeLSNq-83" value="" style="endArrow=classic;startArrow=classic;html=1;strokeColor=#0000FF;" edge="1" parent="1">
          <mxGeometry width="50" height="50" relative="1" as="geometry">
            <mxPoint x="320" y="1350" as="sourcePoint" />
            <mxPoint x="240" y="1270" as="targetPoint" />
          </mxGeometry>
        </mxCell>
        <mxCell id="SaD7OCH_LvbBWKPeLSNq-84" value="" style="endArrow=classic;startArrow=classic;html=1;strokeColor=#0000FF;" edge="1" parent="1">
          <mxGeometry width="50" height="50" relative="1" as="geometry">
            <mxPoint x="340" y="1320" as="sourcePoint" />
            <mxPoint x="230" y="1280" as="targetPoint" />
          </mxGeometry>
        </mxCell>
        <mxCell id="SaD7OCH_LvbBWKPeLSNq-85" value="" style="endArrow=classic;startArrow=classic;html=1;strokeColor=#0000FF;" edge="1" parent="1">
          <mxGeometry width="50" height="50" relative="1" as="geometry">
            <mxPoint x="340" y="1280" as="sourcePoint" />
            <mxPoint x="250" y="1270" as="targetPoint" />
          </mxGeometry>
        </mxCell>
        <mxCell id="SaD7OCH_LvbBWKPeLSNq-86" value="" style="endArrow=classic;startArrow=classic;html=1;strokeColor=#0000FF;" edge="1" parent="1">
          <mxGeometry width="50" height="50" relative="1" as="geometry">
            <mxPoint x="270" y="1390" as="sourcePoint" />
            <mxPoint x="230" y="1330" as="targetPoint" />
          </mxGeometry>
        </mxCell>
        <mxCell id="SaD7OCH_LvbBWKPeLSNq-87" value="" style="endArrow=classic;startArrow=classic;html=1;strokeColor=#0000FF;" edge="1" parent="1">
          <mxGeometry width="50" height="50" relative="1" as="geometry">
            <mxPoint x="300" y="1370" as="sourcePoint" />
            <mxPoint x="230" y="1300" as="targetPoint" />
          </mxGeometry>
        </mxCell>
        <mxCell id="SaD7OCH_LvbBWKPeLSNq-88" value="" style="endArrow=classic;startArrow=classic;html=1;strokeColor=#0000FF;" edge="1" parent="1">
          <mxGeometry width="50" height="50" relative="1" as="geometry">
            <mxPoint x="410" y="1250" as="sourcePoint" />
            <mxPoint x="240" y="1240" as="targetPoint" />
          </mxGeometry>
        </mxCell>
        <mxCell id="SaD7OCH_LvbBWKPeLSNq-89" value="" style="endArrow=classic;startArrow=classic;html=1;strokeColor=#0000FF;" edge="1" parent="1">
          <mxGeometry width="50" height="50" relative="1" as="geometry">
            <mxPoint x="360" y="1270" as="sourcePoint" />
            <mxPoint x="250" y="1210" as="targetPoint" />
          </mxGeometry>
        </mxCell>
        <mxCell id="SaD7OCH_LvbBWKPeLSNq-90" value="" style="endArrow=classic;startArrow=classic;html=1;strokeColor=#0000FF;" edge="1" parent="1">
          <mxGeometry width="50" height="50" relative="1" as="geometry">
            <mxPoint x="390" y="1260" as="sourcePoint" />
            <mxPoint x="250" y="1170" as="targetPoint" />
          </mxGeometry>
        </mxCell>
        <mxCell id="SaD7OCH_LvbBWKPeLSNq-91" value="" style="endArrow=classic;startArrow=classic;html=1;strokeColor=#0000FF;" edge="1" parent="1">
          <mxGeometry width="50" height="50" relative="1" as="geometry">
            <mxPoint x="390" y="1230" as="sourcePoint" />
            <mxPoint x="290" y="1130" as="targetPoint" />
          </mxGeometry>
        </mxCell>
        <mxCell id="SaD7OCH_LvbBWKPeLSNq-92" value="" style="endArrow=classic;startArrow=classic;html=1;strokeColor=#0000FF;" edge="1" parent="1">
          <mxGeometry width="50" height="50" relative="1" as="geometry">
            <mxPoint x="410" y="1190" as="sourcePoint" />
            <mxPoint x="330" y="1090" as="targetPoint" />
          </mxGeometry>
        </mxCell>
        <mxCell id="SaD7OCH_LvbBWKPeLSNq-93" value="" style="endArrow=classic;startArrow=classic;html=1;strokeColor=#0000FF;" edge="1" parent="1">
          <mxGeometry width="50" height="50" relative="1" as="geometry">
            <mxPoint x="450" y="1170" as="sourcePoint" />
            <mxPoint x="370" y="1070" as="targetPoint" />
          </mxGeometry>
        </mxCell>
        <mxCell id="SaD7OCH_LvbBWKPeLSNq-94" value="" style="endArrow=classic;startArrow=classic;html=1;strokeColor=#0000FF;" edge="1" parent="1">
          <mxGeometry width="50" height="50" relative="1" as="geometry">
            <mxPoint x="470" y="1130" as="sourcePoint" />
            <mxPoint x="420" y="1060" as="targetPoint" />
          </mxGeometry>
        </mxCell>
        <mxCell id="SaD7OCH_LvbBWKPeLSNq-95" value="" style="ellipse;whiteSpace=wrap;html=1;fillColor=#FF0000;" vertex="1" parent="1">
          <mxGeometry x="140" y="1420" width="6.25" height="10" as="geometry" />
        </mxCell>
        <mxCell id="SaD7OCH_LvbBWKPeLSNq-96" value="" style="ellipse;whiteSpace=wrap;html=1;fillColor=#FF0000;" vertex="1" parent="1">
          <mxGeometry x="170" y="1400" width="6.25" height="10" as="geometry" />
        </mxCell>
        <mxCell id="SaD7OCH_LvbBWKPeLSNq-97" value="" style="ellipse;whiteSpace=wrap;html=1;fillColor=#FF0000;" vertex="1" parent="1">
          <mxGeometry x="200" y="1380" width="6.25" height="10" as="geometry" />
        </mxCell>
        <mxCell id="SaD7OCH_LvbBWKPeLSNq-98" value="" style="ellipse;whiteSpace=wrap;html=1;fillColor=#FF0000;" vertex="1" parent="1">
          <mxGeometry x="220" y="1370" width="6.25" height="10" as="geometry" />
        </mxCell>
        <mxCell id="SaD7OCH_LvbBWKPeLSNq-99" value="" style="ellipse;whiteSpace=wrap;html=1;fillColor=#FF0000;" vertex="1" parent="1">
          <mxGeometry x="244" y="1351" width="6.25" height="10" as="geometry" />
        </mxCell>
        <mxCell id="SaD7OCH_LvbBWKPeLSNq-100" value="" style="ellipse;whiteSpace=wrap;html=1;fillColor=#FF0000;" vertex="1" parent="1">
          <mxGeometry x="263" y="1332" width="6.25" height="10" as="geometry" />
        </mxCell>
        <mxCell id="SaD7OCH_LvbBWKPeLSNq-101" value="" style="ellipse;whiteSpace=wrap;html=1;fillColor=#FF0000;" vertex="1" parent="1">
          <mxGeometry x="280" y="1310" width="6.25" height="10" as="geometry" />
        </mxCell>
        <mxCell id="SaD7OCH_LvbBWKPeLSNq-102" value="" style="ellipse;whiteSpace=wrap;html=1;fillColor=#FF0000;" vertex="1" parent="1">
          <mxGeometry x="286.25" y="1296" width="6.25" height="10" as="geometry" />
        </mxCell>
        <mxCell id="SaD7OCH_LvbBWKPeLSNq-103" value="" style="ellipse;whiteSpace=wrap;html=1;fillColor=#FF0000;" vertex="1" parent="1">
          <mxGeometry x="289.25" y="1270" width="6.25" height="10" as="geometry" />
        </mxCell>
        <mxCell id="SaD7OCH_LvbBWKPeLSNq-104" value="" style="ellipse;whiteSpace=wrap;html=1;fillColor=#FF0000;" vertex="1" parent="1">
          <mxGeometry x="275.75" y="1239" width="6.25" height="10" as="geometry" />
        </mxCell>
        <mxCell id="SaD7OCH_LvbBWKPeLSNq-105" value="" style="ellipse;whiteSpace=wrap;html=1;fillColor=#FF0000;" vertex="1" parent="1">
          <mxGeometry x="278" y="1222" width="6.25" height="10" as="geometry" />
        </mxCell>
        <mxCell id="SaD7OCH_LvbBWKPeLSNq-106" value="" style="ellipse;whiteSpace=wrap;html=1;fillColor=#FF0000;" vertex="1" parent="1">
          <mxGeometry x="292.5" y="1194" width="6.25" height="10" as="geometry" />
        </mxCell>
        <mxCell id="SaD7OCH_LvbBWKPeLSNq-107" value="" style="ellipse;whiteSpace=wrap;html=1;fillColor=#FF0000;" vertex="1" parent="1">
          <mxGeometry x="324" y="1162" width="6.25" height="10" as="geometry" />
        </mxCell>
        <mxCell id="SaD7OCH_LvbBWKPeLSNq-108" value="" style="ellipse;whiteSpace=wrap;html=1;fillColor=#FF0000;" vertex="1" parent="1">
          <mxGeometry x="368" y="1133" width="6.25" height="10" as="geometry" />
        </mxCell>
        <mxCell id="SaD7OCH_LvbBWKPeLSNq-109" value="" style="ellipse;whiteSpace=wrap;html=1;fillColor=#FF0000;" vertex="1" parent="1">
          <mxGeometry x="403" y="1111" width="6.25" height="10" as="geometry" />
        </mxCell>
        <mxCell id="SaD7OCH_LvbBWKPeLSNq-110" value="" style="ellipse;whiteSpace=wrap;html=1;fillColor=#FF0000;" vertex="1" parent="1">
          <mxGeometry x="442" y="1091" width="6.25" height="10" as="geometry" />
        </mxCell>
      </root>
    </mxGraphModel>
  </diagram>
</mxfile>
